<svg width="32" height="32" viewBox="0 0 32 32" fill="none" xmlns="http://www.w3.org/2000/svg">
<path d="M5.73337 2V30H26.2676V8.66667H20.306C20.1303 8.66665 19.9619 8.59641 19.8377 8.47139C19.7134 8.34636 19.6436 8.17681 19.6436 8V2H5.73337ZM20.9684 2V7.33333H26.2676L20.9684 2ZM12.3573 5.33333C13.2719 5.33333 14.0133 6.07953 14.0133 7C14.0133 7.92047 13.2719 8.66667 12.3573 8.66667C11.4427 8.66667 10.7013 7.92047 10.7013 7C10.7013 6.07953 11.4427 5.33333 12.3573 5.33333ZM12.3573 10C14.3693 10 16.0005 11.4924 16.0005 13.3333H8.71414C8.71414 11.4924 10.3453 10 12.3573 10ZM8.62099 16.3333C8.63134 16.3331 8.64169 16.3331 8.65204 16.3333C8.67273 16.3324 8.69345 16.3324 8.71414 16.3333H23.2868C23.3746 16.3321 23.4617 16.3484 23.5432 16.3813C23.6246 16.4143 23.6988 16.4632 23.7613 16.5252C23.8238 16.5873 23.8734 16.6612 23.9073 16.7427C23.9412 16.8242 23.9586 16.9117 23.9586 17C23.9586 17.0884 23.9412 17.1758 23.9073 17.2573C23.8734 17.3388 23.8238 17.4127 23.7613 17.4748C23.6988 17.5368 23.6246 17.5857 23.5432 17.6187C23.4617 17.6516 23.3746 17.6679 23.2868 17.6667H8.71414C8.53846 17.6791 8.36507 17.6208 8.23211 17.5045C8.09916 17.3883 8.01752 17.2237 8.00517 17.0469C7.99282 16.8701 8.05076 16.6956 8.16625 16.5617C8.28174 16.4279 8.44531 16.3458 8.62099 16.3333ZM8.62099 20C8.63134 19.9998 8.64169 19.9998 8.65204 20C8.67273 19.999 8.69345 19.999 8.71414 20H23.2868C23.3746 19.9988 23.4617 20.0151 23.5432 20.048C23.6246 20.081 23.6988 20.1299 23.7613 20.1919C23.8238 20.2539 23.8734 20.3278 23.9073 20.4093C23.9412 20.4908 23.9586 20.5783 23.9586 20.6667C23.9586 20.755 23.9412 20.8425 23.9073 20.924C23.8734 21.0055 23.8238 21.0794 23.7613 21.1414C23.6988 21.2035 23.6246 21.2524 23.5432 21.2853C23.4617 21.3183 23.3746 21.3346 23.2868 21.3333H8.71414C8.53846 21.3458 8.36507 21.2875 8.23211 21.1712C8.09916 21.055 8.01752 20.8904 8.00517 20.7135C7.99282 20.5367 8.05076 20.3622 8.16625 20.2284C8.28174 20.0946 8.44531 20.0124 8.62099 20ZM8.62099 23.6667C8.63134 23.6664 8.64169 23.6664 8.65204 23.6667C8.67273 23.6657 8.69345 23.6657 8.71414 23.6667H23.2868C23.3746 23.6654 23.4617 23.6817 23.5432 23.7147C23.6246 23.7476 23.6988 23.7965 23.7613 23.8586C23.8238 23.9206 23.8734 23.9945 23.9073 24.076C23.9412 24.1575 23.9586 24.245 23.9586 24.3333C23.9586 24.4217 23.9412 24.5092 23.9073 24.5907C23.8734 24.6722 23.8238 24.7461 23.7613 24.8081C23.6988 24.8701 23.6246 24.919 23.5432 24.952C23.4617 24.9849 23.3746 25.0012 23.2868 25H8.71414C8.53846 25.0124 8.36507 24.9541 8.23211 24.8379C8.09916 24.7217 8.01752 24.557 8.00517 24.3802C7.99282 24.2034 8.05076 24.0289 8.16625 23.8951C8.28174 23.7613 8.44531 23.6791 8.62099 23.6667Z" fill="black"/>
</svg>
