<svg width="32" height="32" viewBox="0 0 32 32" fill="none" xmlns="http://www.w3.org/2000/svg">
<g clip-path="url(#clip0_82_1)">
<path fill-rule="evenodd" clip-rule="evenodd" d="M-0.199996 6.01899C-0.201842 5.22804 -0.0474161 4.44452 0.254413 3.71343C0.556242 2.98234 0.999528 2.31808 1.55881 1.75879C2.1181 1.19951 2.78236 0.756224 3.51345 0.454395C4.24454 0.152566 5.02806 -0.00186032 5.819 -1.41582e-05H25.781C26.5719 -0.00186032 27.3555 0.152566 28.0866 0.454395C28.8176 0.756224 29.4819 1.19951 30.0412 1.75879C30.6005 2.31808 31.0438 2.98234 31.3456 3.71343C31.6474 4.44452 31.8018 5.22804 31.8 6.01899V25.981C31.8018 26.7719 31.6474 27.5554 31.3456 28.2865C31.0438 29.0176 30.6005 29.6819 30.0412 30.2412C29.4819 30.8005 28.8176 31.2437 28.0866 31.5456C27.3555 31.8474 26.5719 32.0018 25.781 32H5.819C5.02806 32.0018 4.24454 31.8474 3.51345 31.5456C2.78236 31.2437 2.1181 30.8005 1.55881 30.2412C0.999528 29.6819 0.556242 29.0176 0.254413 28.2865C-0.0474161 27.5554 -0.201842 26.7719 -0.199996 25.981V6.01899ZM25.88 18.929V26.205H21.662V19.416C21.662 17.711 21.052 16.547 19.525 16.547C18.359 16.547 17.665 17.331 17.361 18.09C17.249 18.361 17.221 18.739 17.221 19.118V26.205H13C13 26.205 13.057 14.707 13 13.515H17.22V15.315L17.192 15.355H17.219V15.315C17.779 14.451 18.781 13.218 21.022 13.218C23.798 13.218 25.879 15.031 25.879 18.928L25.88 18.929ZM8.588 7.39899C7.144 7.39999 6.2 8.34599 6.2 9.59099C6.2 10.809 7.117 11.785 8.532 11.785H8.56C10.031 11.785 10.946 10.809 10.946 9.59099C10.92 8.34599 10.031 7.39999 8.588 7.39999V7.39899ZM6.45 26.205H10.667V13.515H6.451V26.205H6.45Z" fill="#0A0A0A"/>
</g>
<defs>
<clipPath id="clip0_82_1">
<rect width="32" height="32" fill="white"/>
</clipPath>
</defs>
</svg>
