<svg width="32" height="32" viewBox="0 0 32 32" fill="none" xmlns="http://www.w3.org/2000/svg">
<g clip-path="url(#clip0_82_0)">
<path d="M31.939 6.09199C30.741 6.6197 29.4716 6.96778 28.172 7.12499C29.5401 6.30242 30.5644 5.01274 31.056 3.49399C29.763 4.24689 28.3543 4.78044 26.887 5.07299C25.988 4.11311 24.8213 3.44559 23.5382 3.15707C22.2551 2.86855 20.9149 2.97234 19.6915 3.45498C18.4682 3.93762 17.4181 4.77683 16.6776 5.86368C15.9372 6.95054 15.5405 8.23487 15.539 9.54999C15.539 10.07 15.599 10.57 15.708 11.049C10.255 10.792 5.421 8.17299 2.187 4.21399C1.59885 5.2138 1.29202 6.35404 1.299 7.51399C1.29809 8.59404 1.56386 9.6576 2.07273 10.6103C2.58159 11.5629 3.3178 12.3752 4.216 12.975C3.17448 12.9414 2.15598 12.66 1.245 12.154V12.235C1.24439 13.7501 1.76796 15.2188 2.72688 16.3919C3.6858 17.565 5.02101 18.3702 6.506 18.671C5.5438 18.9286 4.53609 18.9672 3.557 18.784C3.9786 20.088 4.79673 21.2279 5.89724 22.0446C6.99776 22.8614 8.32577 23.3142 9.696 23.34C7.37541 25.1614 4.51001 26.15 1.56 26.147C1.04 26.147 0.521 26.116 0 26.058C3.00758 27.9838 6.50469 29.0059 10.076 29.003C22.148 29.003 28.741 19.008 28.741 10.355C28.741 10.076 28.741 9.79499 28.721 9.51499C30.002 8.59599 31.121 7.43499 32.001 6.11799L31.938 6.09099L31.939 6.09199Z" fill="black"/>
</g>
<defs>
<clipPath id="clip0_82_0">
<rect width="32" height="32" fill="white"/>
</clipPath>
</defs>
</svg>
