<svg width="32" height="32" viewBox="0 0 32 32" fill="none" xmlns="http://www.w3.org/2000/svg">
<path d="M17.3907 2.14705C14.7335 1.778 12.0206 2.10676 9.54588 3.09774C7.07114 4.08872 4.92879 5.70417 3.35077 7.76918C3.20881 7.9552 3.10678 8.16596 3.05053 8.38944C2.99427 8.61293 2.98488 8.84475 3.0229 9.07169C3.06092 9.29862 3.1456 9.51621 3.2721 9.71204C3.39861 9.90787 3.56446 10.0781 3.76019 10.213C4.15549 10.4855 4.6485 10.5976 5.13076 10.5246C5.36954 10.4885 5.59851 10.408 5.80457 10.2878C6.01063 10.1676 6.18976 10.0099 6.33173 9.82393C7.70171 8.03063 9.63398 6.6956 11.8515 6.01024C14.0691 5.32488 16.458 5.32438 18.6759 6.00881C20.8938 6.69324 22.8267 8.02746 24.1975 9.82019C25.5683 11.6129 26.3066 13.7721 26.3066 15.9882C26.3066 18.2042 25.5683 20.3634 24.1975 22.1561C22.8267 23.9489 20.8938 25.2831 18.6759 25.9675C16.458 26.652 14.0691 26.6515 11.8515 25.9661C9.63398 25.2807 7.70171 23.9457 6.33173 22.1524C6.18886 21.967 6.00895 21.8101 5.80228 21.6907C5.59561 21.5714 5.36623 21.4918 5.12722 21.4567C4.64454 21.3858 4.15197 21.5 3.7579 21.7742C3.36382 22.0485 3.1005 22.4602 3.02588 22.9189C2.95125 23.3776 3.07143 23.8457 3.35997 24.2203C5.22214 26.6619 7.86464 28.4664 10.8937 29.3648C13.9227 30.2631 17.1761 30.2073 20.169 29.2056C23.162 28.204 25.7342 26.31 27.5025 23.8061C29.2707 21.3022 30.1403 18.3223 29.9816 15.3105C29.6504 9.08509 23.8862 3.02578 17.3907 2.14705Z" fill="currentColor"/>
<path d="M2 16.0023C2 16.4997 2.19612 16.9767 2.54523 17.3284C2.89433 17.6802 3.36781 17.8777 3.86152 17.8777H16.1475L14.1883 19.8235C13.8513 20.1759 13.6644 20.647 13.6674 21.1363C13.6705 21.6256 13.8632 22.0943 14.2045 22.4425C14.5458 22.7906 15.0087 22.9906 15.4943 22.9997C15.9799 23.0088 16.4498 22.8263 16.8037 22.4912L21.0806 18.22C21.3718 17.93 21.6031 17.5847 21.7609 17.204C21.9187 16.8233 22 16.4149 22 16.0023C22 15.5898 21.9187 15.1814 21.7609 14.8007C21.6031 14.42 21.3718 14.0747 21.0806 13.7847L16.7851 9.50878C16.4312 9.17368 15.9613 8.99122 15.4757 9.00033C14.99 9.00943 14.5272 9.20939 14.1859 9.55752C13.8446 9.90566 13.6518 10.3744 13.6488 10.8637C13.6458 11.353 13.8327 11.8241 14.1697 12.1765L16.1475 14.1269H3.86152C3.36781 14.1269 2.89433 14.3245 2.54523 14.6762C2.19612 15.0279 2 15.505 2 16.0023Z" fill="currentColor"/>
</svg>
