<svg width="32" height="32" viewBox="0 0 32 32" fill="none" xmlns="http://www.w3.org/2000/svg">
<g clip-path="url(#clip0_1661_521)">
<path d="M30 15.5C30 18.4136 30 20.3785 29.9346 21.4626C29.8037 24.1051 29.0841 26.1378 27.6449 27.5607C26.2056 28.9836 24.3084 29.7967 21.757 29.9322C20.7103 30 18.7477 30 16 30C13.1869 30 11.2897 30 10.243 29.9322C7.69159 29.7967 5.72897 29.0514 4.35514 27.5607C2.98131 26.1378 2.19626 24.1051 2.06542 21.4626C2 20.3785 2 18.3458 2 15.5C2 12.6542 2 10.6215 2.06542 9.53738C2.19626 6.89486 2.91589 4.86215 4.35514 3.43925C5.72897 2.01636 7.69159 1.20327 10.243 1.06776C11.2897 1 13.2523 1 16 1C18.8131 1 20.7103 1 21.757 1.06776C24.3084 1.20327 26.271 1.9486 27.6449 3.43925C29.0187 4.92991 29.8037 6.89486 29.9346 9.53738C29.9346 10.6215 30 12.5864 30 15.5ZM17.3738 3.57477C16.5234 3.57477 16.0654 3.57477 16 3.57477C15.9346 3.57477 15.4766 3.57477 14.6262 3.57477C13.7757 3.57477 13.1215 3.57477 12.729 3.57477C12.271 3.57477 11.6822 3.57477 10.9626 3.64252C10.243 3.64252 9.58879 3.71028 9.06542 3.84579C8.54206 3.91355 8.08411 4.04907 7.75701 4.18458C7.16822 4.45561 6.64486 4.79439 6.1215 5.26869C5.66355 5.74299 5.33645 6.28505 5.07477 6.96262C4.94393 7.3014 4.81308 7.7757 4.74766 8.31776C4.68224 8.85981 4.61682 9.46963 4.5514 10.2827C4.5514 11.028 4.48598 11.6379 4.48598 12.1121C4.48598 12.5864 4.48598 13.264 4.48598 14.0771C4.48598 14.9579 4.48598 15.4322 4.48598 15.5C4.48598 15.5678 4.48598 16.0421 4.48598 16.9229C4.48598 17.8037 4.48598 18.4813 4.48598 18.8878C4.48598 19.3622 4.48598 19.972 4.5514 20.7173C4.5514 21.4626 4.61682 22.1402 4.74766 22.6822C4.8785 23.2243 4.94393 23.6986 5.07477 24.0374C5.33645 24.6472 5.66355 25.1893 6.1215 25.7313C6.57944 26.2056 7.1028 26.5444 7.75701 26.8154C8.08411 26.9509 8.54206 27.0864 9.06542 27.1542C9.58879 27.222 10.1776 27.2897 10.9626 27.3575C11.7477 27.4252 12.271 27.4252 12.729 27.4252C13.1869 27.4252 13.8411 27.4252 14.6262 27.4252C15.4766 27.4252 15.9346 27.4252 16 27.4252C16.0654 27.4252 16.5234 27.4252 17.3738 27.4252C18.2243 27.4252 18.8785 27.4252 19.271 27.4252C19.729 27.4252 20.3178 27.4252 21.0374 27.3575C21.757 27.3575 22.4112 27.2897 22.9346 27.1542C23.4579 27.0864 23.9159 26.9509 24.243 26.8154C24.8318 26.5444 25.3551 26.2056 25.8785 25.7313C26.3364 25.257 26.6636 24.715 26.9252 24.0374C27.0561 23.6986 27.1869 23.2243 27.2523 22.6822C27.3178 22.1402 27.3832 21.5304 27.4486 20.7173C27.4486 19.972 27.514 19.3622 27.514 18.8878C27.514 18.4136 27.514 17.736 27.514 16.9229C27.514 16.0421 27.514 15.5678 27.514 15.5C27.514 15.4322 27.514 14.9579 27.514 14.0771C27.514 13.1963 27.514 12.5187 27.514 12.1121C27.514 11.6379 27.514 11.028 27.4486 10.2827C27.4486 9.53738 27.3832 8.85981 27.2523 8.31776C27.1869 7.7757 27.0561 7.3014 26.9252 6.96262C26.6636 6.3528 26.3364 5.81075 25.8785 5.26869C25.4206 4.79439 24.8972 4.45561 24.243 4.18458C23.9159 4.04907 23.4579 3.91355 22.9346 3.84579C22.4112 3.77804 21.8224 3.71028 21.0374 3.64252C20.3178 3.64252 19.729 3.57477 19.271 3.57477C18.8785 3.57477 18.2243 3.57477 17.3738 3.57477ZM21.0374 10.215C22.4112 11.6379 23.1308 13.3995 23.1308 15.5C23.1308 17.6005 22.4112 19.2944 21.0374 20.785C19.6636 22.2079 17.9626 22.9533 15.9346 22.9533C13.9065 22.9533 12.271 22.2079 10.8318 20.785C9.45794 19.3621 8.73832 17.6005 8.73832 15.5C8.73832 13.3995 9.45794 11.7056 10.8318 10.215C12.2056 8.79206 13.9065 8.04673 15.9346 8.04673C17.9626 8.04673 19.6636 8.7243 21.0374 10.215ZM19.271 18.8878C20.1869 17.9393 20.6449 16.7874 20.6449 15.5C20.6449 14.2126 20.1869 12.993 19.271 12.0444C18.3551 11.0958 17.243 10.6215 15.9346 10.6215C14.6262 10.6215 13.514 11.0958 12.5981 12.0444C11.6822 12.993 11.2243 14.1449 11.2243 15.5C11.2243 16.8551 11.6822 18.007 12.5981 18.8878C13.514 19.8364 14.6262 20.3107 15.9346 20.3107C17.243 20.3107 18.3551 19.8364 19.271 18.8878ZM24.6355 6.48832C24.9626 6.8271 25.1589 7.23364 25.1589 7.70794C25.1589 8.18224 24.9626 8.58879 24.6355 8.92757C24.3084 9.26636 23.9159 9.46963 23.4579 9.46963C23 9.46963 22.6075 9.26636 22.2804 8.92757C21.9533 8.58879 21.757 8.18224 21.757 7.70794C21.757 7.23364 21.9533 6.8271 22.2804 6.48832C22.6075 6.14953 23 5.94626 23.4579 5.94626C23.9159 5.94626 24.3084 6.14953 24.6355 6.48832Z" fill="black"/>
</g>
<defs>
<clipPath id="clip0_1661_521">
<rect width="32" height="32" fill="white"/>
</clipPath>
</defs>
</svg>
