<svg width="32" height="32" viewBox="0 0 32 32" fill="none" xmlns="http://www.w3.org/2000/svg">
<path d="M20.6667 1.33334H10C8.16001 1.33334 6.66667 2.82668 6.66667 4.66668V27.3333C6.66667 29.1733 8.16001 30.6667 10 30.6667H20.6667C22.5067 30.6667 24 29.1733 24 27.3333V4.66668C24 2.82668 22.5067 1.33334 20.6667 1.33334ZM15.3333 29.3333C14.2267 29.3333 13.3333 28.44 13.3333 27.3333C13.3333 26.2267 14.2267 25.3333 15.3333 25.3333C16.44 25.3333 17.3333 26.2267 17.3333 27.3333C17.3333 28.44 16.44 29.3333 15.3333 29.3333ZM21.3333 24H9.33334V5.33334H21.3333V24Z" fill="black"/>
</svg>
