<svg width="256" height="257" viewBox="0 0 256 257" fill="none" xmlns="http://www.w3.org/2000/svg">
<path d="M34.7652 240V219.672C39.4879 219.467 43.3892 218.851 46.4692 217.824C49.7546 216.797 52.2186 214.436 53.8612 210.74C55.7092 207.044 56.6332 201.089 56.6332 192.876V74.912C56.6332 69.368 56.7359 64.0293 56.9412 58.896C57.3519 53.7627 57.6599 49.8613 57.8652 47.192C54.5799 47.3973 50.4732 47.6027 45.5452 47.808C40.6172 47.808 37.0239 47.9107 34.7652 48.116V24.4H123.161V44.728C118.644 44.9333 114.743 45.5493 111.457 46.576C108.172 47.6027 105.605 49.964 103.757 53.66C102.115 57.1507 101.293 63.1053 101.293 71.524V118.34H123.469L147.185 77.992C150.676 71.832 154.372 65.672 158.273 59.512C162.175 53.352 165.46 49.1427 168.129 46.884C164.844 47.0893 161.353 47.2947 157.657 47.5C153.961 47.7053 150.984 47.9107 148.725 48.116V24.4H224.185V44.728C219.668 44.9333 214.74 45.7547 209.401 47.192C204.268 48.6293 198.929 51.504 193.385 55.816C187.841 60.128 182.195 66.904 176.445 76.144L146.877 123.576C150.984 126.245 154.577 129.12 157.657 132.2C160.943 135.075 163.817 138.257 166.281 141.748L198.005 186.408C202.112 192.157 206.321 197.599 210.633 202.732C215.151 207.66 219.771 211.664 224.493 214.744C229.216 217.824 233.836 219.467 238.353 219.672V240H190.921C189.279 239.795 186.609 237.947 182.913 234.456C179.217 230.965 175.316 226.756 171.209 221.828C167.103 216.9 163.612 212.485 160.737 208.584L130.245 164.232C127.576 160.331 124.599 156.327 121.313 152.22C118.233 148.113 115.256 145.033 112.381 142.98H101.293V189.488C101.293 195.032 101.191 200.371 100.985 205.504C100.78 210.637 100.472 214.539 100.061 217.208C103.347 216.797 107.453 216.592 112.381 216.592C117.515 216.387 121.108 216.284 123.161 216.284V240H34.7652Z" fill="black"/>
<path d="M26.7652 235V214.672C31.4879 214.467 35.3892 213.851 38.4692 212.824C41.7546 211.797 44.2186 209.436 45.8612 205.74C47.7092 202.044 48.6332 196.089 48.6332 187.876V69.912C48.6332 64.368 48.7359 59.0293 48.9412 53.896C49.3519 48.7627 49.6599 44.8613 49.8652 42.192C46.5799 42.3973 42.4732 42.6027 37.5452 42.808C32.6172 42.808 29.0239 42.9107 26.7652 43.116V19.4H115.161V39.728C110.644 39.9333 106.743 40.5493 103.457 41.576C100.172 42.6027 97.6052 44.964 95.7572 48.66C94.1146 52.1507 93.2932 58.1053 93.2932 66.524V113.34H115.469L139.185 72.992C142.676 66.832 146.372 60.672 150.273 54.512C154.175 48.352 157.46 44.1427 160.129 41.884C156.844 42.0893 153.353 42.2947 149.657 42.5C145.961 42.7053 142.984 42.9107 140.725 43.116V19.4H216.185V39.728C211.668 39.9333 206.74 40.7547 201.401 42.192C196.268 43.6293 190.929 46.504 185.385 50.816C179.841 55.128 174.195 61.904 168.445 71.144L138.877 118.576C142.984 121.245 146.577 124.12 149.657 127.2C152.943 130.075 155.817 133.257 158.281 136.748L190.005 181.408C194.112 187.157 198.321 192.599 202.633 197.732C207.151 202.66 211.771 206.664 216.493 209.744C221.216 212.824 225.836 214.467 230.353 214.672V235H182.921C181.279 234.795 178.609 232.947 174.913 229.456C171.217 225.965 167.316 221.756 163.209 216.828C159.103 211.9 155.612 207.485 152.737 203.584L122.245 159.232C119.576 155.331 116.599 151.327 113.313 147.22C110.233 143.113 107.256 140.033 104.381 137.98H93.2932V184.488C93.2932 190.032 93.1906 195.371 92.9852 200.504C92.7799 205.637 92.4719 209.539 92.0612 212.208C95.3466 211.797 99.4532 211.592 104.381 211.592C109.515 211.387 113.108 211.284 115.161 211.284V235H26.7652Z" fill="white"/>
</svg>
